<?xml version="1.0" standalone="no"?>
<!DOCTYPE svg PUBLIC "-//W3C//DTD SVG 20010904//EN"
 "http://www.w3.org/TR/2001/REC-SVG-20010904/DTD/svg10.dtd">
<svg version="1.0" xmlns="http://www.w3.org/2000/svg"
 width="200.000000pt" height="200.000000pt" viewBox="0 0 200.000000 200.000000"
 preserveAspectRatio="xMidYMid meet">

<g transform="translate(0.000000,200.000000) scale(0.100000,-0.100000)"
fill="#000000" stroke="none">
<path d="M0 1000 l0 -1000 1000 0 1000 0 0 1000 0 1000 -1000 0 -1000 0 0
-1000z m1175 300 c111 -54 176 -153 183 -279 6 -104 -22 -177 -93 -248 -50
-51 -85 -67 -85 -40 0 8 18 28 40 46 22 17 50 51 64 74 114 198 -27 443 -254
440 -37 0 -82 -8 -104 -17 -96 -40 -171 -138 -183 -236 -5 -41 -9 -50 -26 -50
-17 0 -19 5 -12 46 20 134 100 235 222 280 59 22 186 14 248 -16z m-205 -305
c3 -46 8 -75 13 -67 11 16 85 15 115 -2 40 -22 62 -66 62 -125 0 -49 -3 -57
-39 -92 -32 -32 -46 -39 -78 -39 -21 0 -48 7 -60 15 -19 13 -22 13 -27 -1 -9
-24 -60 -14 -64 13 l-3 22 -36 -25 c-54 -36 -121 -34 -167 6 -84 74 -66 194
35 234 50 20 99 13 140 -21 l29 -25 0 89 c0 50 3 93 7 97 4 4 21 6 38 4 l30
-3 5 -80z"/>
<path d="M999 866 c-61 -30 -45 -118 22 -124 21 -2 40 3 47 10 47 57 -6 146
-69 114z"/>
<path d="M727 852 c-39 -42 -9 -112 46 -112 55 0 84 61 51 108 -19 28 -74 30
-97 4z"/>
<path d="M913 805 c0 -22 2 -30 4 -17 2 12 2 30 0 40 -3 9 -5 -1 -4 -23z"/>
</g>
</svg>
